<?xml version="1.0" standalone="no"?>
<!DOCTYPE svg PUBLIC "-//W3C//DTD SVG 20010904//EN"
 "http://www.w3.org/TR/2001/REC-SVG-20010904/DTD/svg10.dtd">
<svg version="1.0" xmlns="http://www.w3.org/2000/svg"
 width="271.000000pt" height="289.000000pt" viewBox="0 0 271.000000 289.000000"
 preserveAspectRatio="xMidYMid meet">

<g transform="translate(0.000000,289.000000) scale(0.100000,-0.100000)"
fill="#000000" stroke="none">
<path d="M1590 2570 c0 -7 -7 -27 -16 -46 -9 -19 -15 -36 -13 -38 2 -1 30 -20
62 -40 88 -58 178 -163 231 -271 25 -51 46 -98 46 -106 0 -7 13 -27 29 -44
149 -157 235 -455 190 -655 -5 -25 -14 -67 -19 -95 -9 -49 -106 -255 -120
-255 -10 0 -30 -47 -22 -54 10 -10 11 -36 1 -36 -5 0 -4 -11 3 -25 8 -19 8
-28 -2 -40 -10 -12 -9 -16 4 -21 21 -8 20 -23 -1 -47 -17 -19 -17 -19 7 -13
14 4 45 18 70 30 l45 22 -4 82 c-3 69 0 88 19 124 47 91 128 141 227 142 l63
0 26 80 c19 59 27 111 31 191 5 102 -8 243 -25 269 -4 6 -14 31 -22 56 -14 43
-17 45 -55 45 l-40 0 -6 -90 c-4 -49 -14 -118 -23 -151 -19 -76 -90 -215 -124
-246 l-26 -23 17 25 c31 47 74 135 95 196 39 113 57 294 29 294 -34 0 -147 79
-147 104 0 5 -8 18 -17 29 -14 15 -18 37 -18 101 0 73 3 87 28 125 17 25 26
49 22 60 -8 28 -139 155 -201 196 -72 48 -165 90 -245 110 -35 9 -72 18 -81
21 -10 3 -18 0 -18 -6z"/>
<path d="M878 2280 c-126 -15 -315 -90 -302 -120 43 -103 16 -212 -69 -285
-50 -43 -101 -58 -186 -53 l-64 3 -29 -85 c-39 -115 -49 -294 -23 -403 29
-120 54 -177 76 -177 43 0 59 18 59 68 1 143 77 349 166 447 24 27 44 53 44
59 0 18 52 141 71 168 11 14 19 31 19 36 0 21 165 185 225 224 69 45 196 107
222 109 33 2 -61 18 -102 17 -22 0 -70 -4 -107 -8z"/>
<path d="M2223 2259 c-56 -28 -88 -67 -109 -134 -17 -52 -17 -58 0 -110 20
-64 66 -122 113 -141 41 -17 143 -18 180 -1 41 18 72 47 99 93 33 56 33 153 1
205 -26 42 -73 84 -111 99 -46 17 -127 12 -173 -11z"/>
<path d="M250 2245 c-101 -58 -138 -179 -85 -280 29 -54 61 -82 119 -107 51
-21 79 -22 136 -2 63 22 117 77 137 141 28 90 -7 191 -86 243 -55 37 -160 39
-221 5z"/>
<path d="M505 1657 c-85 -141 -120 -230 -135 -349 -16 -131 -19 -122 59 -148
56 -18 77 -30 108 -66 46 -54 61 -92 62 -162 1 -63 -15 -105 -59 -155 l-32
-37 48 -55 c121 -142 314 -246 485 -262 l66 -6 11 31 c9 27 8 32 -13 46 -14 9
-27 16 -30 16 -3 0 -30 18 -60 40 -118 87 -203 196 -251 323 -15 39 -38 82
-51 95 -147 147 -236 455 -192 662 6 28 9 53 7 55 -2 2 -12 -11 -23 -28z"/>
<path d="M685 1661 c-161 -73 -59 -298 113 -251 59 15 102 68 102 126 0 63
-23 102 -73 125 -53 23 -91 24 -142 0z m137 -61 c28 -35 23 -86 -11 -121 -36
-36 -70 -37 -110 -3 -41 34 -44 92 -5 131 22 22 32 25 67 20 26 -4 49 -14 59
-27z"/>
<path d="M1360 1540 c0 -107 3 -130 15 -130 10 0 15 15 17 58 l3 57 49 6 c56
6 76 26 76 75 0 46 -30 64 -102 64 l-58 0 0 -130z m120 85 c17 -20 3 -54 -25
-61 -44 -11 -60 -2 -63 39 -3 37 -3 37 36 37 22 0 45 -6 52 -15z"/>
<path d="M1560 1540 l0 -130 80 0 c64 0 80 3 80 15 0 12 -13 15 -60 15 l-60 0
0 115 c0 108 -1 115 -20 115 -19 0 -20 -7 -20 -130z"/>
<path d="M1750 1540 c0 -123 1 -130 20 -130 19 0 20 7 20 103 l0 102 45 -50
c28 -31 47 -46 52 -39 38 51 67 84 74 84 5 0 9 -45 9 -100 0 -82 3 -100 15
-100 13 0 15 21 15 130 0 119 -1 130 -18 130 -10 0 -36 -22 -58 -50 -21 -27
-42 -49 -46 -50 -3 0 -25 23 -48 50 -23 28 -50 50 -61 50 -18 0 -19 -9 -19
-130z"/>
<path d="M1021 1581 c-7 -5 -31 -6 -52 -4 l-39 6 0 -87 0 -86 30 0 30 0 0 65
c0 55 3 66 21 75 35 19 49 -3 49 -76 0 -62 1 -64 25 -64 24 0 25 2 25 73 0 59
-4 77 -18 90 -20 19 -49 22 -71 8z"/>
<path d="M1169 1561 c-76 -76 12 -187 119 -150 50 17 41 38 -13 31 -46 -5 -75
8 -75 34 0 11 17 14 66 14 l66 0 -6 28 c-17 71 -104 95 -157 43z m99 -13 c21
-21 13 -28 -28 -28 -22 0 -40 4 -40 8 0 14 23 32 40 32 9 0 21 -5 28 -12z"/>
<path d="M304 1141 c-47 -12 -93 -48 -125 -99 -24 -38 -29 -57 -29 -107 0
-249 345 -296 416 -56 15 51 15 59 0 108 -29 92 -93 148 -181 157 -28 3 -64 1
-81 -3z"/>
<path d="M2245 1141 c-11 -5 -33 -22 -50 -36 -16 -15 -25 -24 -18 -21 6 4 17
1 22 -6 42 -51 61 -77 61 -82 0 -4 10 -18 23 -31 28 -30 37 -42 67 -85 13 -19
31 -43 39 -52 35 -38 42 -49 36 -58 -15 -24 16 -6 53 30 90 91 74 247 -34 320
-30 20 -52 25 -108 27 -39 2 -80 -1 -91 -6z"/>
<path d="M1923 958 c-15 -20 -25 -38 -20 -38 3 0 12 11 21 25 17 26 16 35 -1
13z"/>
<path d="M2085 811 c-21 -20 -110 -61 -188 -87 -69 -23 -99 -27 -192 -27 -149
0 -243 0 -416 -1 -92 0 -152 4 -160 11 -8 6 -30 13 -49 16 l-35 6 38 -11 c27
-9 37 -17 37 -32 0 -15 -3 -17 -8 -8 -7 9 -15 10 -35 3 -15 -6 -27 -15 -27
-20 0 -10 -55 -41 -73 -41 -5 0 -6 8 -2 18 5 14 4 15 -7 3 -11 -11 -10 -15 5
-25 10 -6 31 -21 45 -34 15 -13 47 -35 70 -49 l44 -26 38 42 c48 53 93 71 175
71 75 0 122 -16 164 -57 32 -31 71 -95 71 -118 0 -47 241 30 367 117 57 39
180 164 189 191 7 22 -14 67 -31 67 -6 0 -15 -4 -20 -9z"/>
<path d="M1250 564 c-44 -24 -88 -70 -56 -58 8 3 19 -3 25 -15 6 -11 23 -32
36 -47 14 -15 25 -34 25 -42 0 -8 10 -25 23 -37 51 -51 77 -84 78 -102 0 -12
2 -14 6 -4 4 9 11 2 21 -20 8 -19 14 -37 14 -42 -3 -13 14 -7 49 16 98 66 116
209 38 305 -58 72 -175 93 -259 46z"/>
<path d="M1308 173 c6 -2 18 -2 25 0 6 3 1 5 -13 5 -14 0 -19 -2 -12 -5z"/>
<path d="M1368 173 c6 -2 18 -2 25 0 6 3 1 5 -13 5 -14 0 -19 -2 -12 -5z"/>
</g>
</svg>
